<svg id="visual" viewBox="0 0 900 600" width="900" height="600" xmlns="http://www.w3.org/2000/svg" xmlns:xlink="http://www.w3.org/1999/xlink" version="1.1"><rect x="0" y="0" width="900" height="600" fill="#93c5fd"></rect><path d="M0 346L21.5 346.8C43 347.7 86 349.3 128.8 341.2C171.7 333 214.3 315 257.2 318.2C300 321.3 343 345.7 385.8 359.7C428.7 373.7 471.3 377.3 514.2 368C557 358.7 600 336.3 642.8 330.8C685.7 325.3 728.3 336.7 771.2 333C814 329.3 857 310.7 878.5 301.3L900 292L900 601L878.5 601C857 601 814 601 771.2 601C728.3 601 685.7 601 642.8 601C600 601 557 601 514.2 601C471.3 601 428.7 601 385.8 601C343 601 300 601 257.2 601C214.3 601 171.7 601 128.8 601C86 601 43 601 21.5 601L0 601Z" fill="#ffffff"></path><path d="M0 330L21.5 343.8C43 357.7 86 385.3 128.8 393C171.7 400.7 214.3 388.3 257.2 371.5C300 354.7 343 333.3 385.8 328.8C428.7 324.3 471.3 336.7 514.2 346.5C557 356.3 600 363.7 642.8 373C685.7 382.3 728.3 393.7 771.2 396.7C814 399.7 857 394.3 878.5 391.7L900 389L900 601L878.5 601C857 601 814 601 771.2 601C728.3 601 685.7 601 642.8 601C600 601 557 601 514.2 601C471.3 601 428.7 601 385.8 601C343 601 300 601 257.2 601C214.3 601 171.7 601 128.8 601C86 601 43 601 21.5 601L0 601Z" fill="#f5f5f5"></path><path d="M0 370L21.5 368.2C43 366.3 86 362.7 128.8 370.2C171.7 377.7 214.3 396.3 257.2 406.2C300 416 343 417 385.8 406.5C428.7 396 471.3 374 514.2 371.8C557 369.7 600 387.3 642.8 397.5C685.7 407.7 728.3 410.3 771.2 411.8C814 413.3 857 413.7 878.5 413.8L900 414L900 601L878.5 601C857 601 814 601 771.2 601C728.3 601 685.7 601 642.8 601C600 601 557 601 514.2 601C471.3 601 428.7 601 385.8 601C343 601 300 601 257.2 601C214.3 601 171.7 601 128.8 601C86 601 43 601 21.5 601L0 601Z" fill="#eaeaea"></path><path d="M0 433L21.5 430.5C43 428 86 423 128.8 419.3C171.7 415.7 214.3 413.3 257.2 426C300 438.7 343 466.3 385.8 477.2C428.7 488 471.3 482 514.2 468.7C557 455.3 600 434.7 642.8 425.5C685.7 416.3 728.3 418.7 771.2 428.3C814 438 857 455 878.5 463.5L900 472L900 601L878.5 601C857 601 814 601 771.2 601C728.3 601 685.7 601 642.8 601C600 601 557 601 514.2 601C471.3 601 428.7 601 385.8 601C343 601 300 601 257.2 601C214.3 601 171.7 601 128.8 601C86 601 43 601 21.5 601L0 601Z" fill="#e0e0e0"></path><path d="M0 504L21.5 505.8C43 507.7 86 511.3 128.8 512.5C171.7 513.7 214.3 512.3 257.2 504.3C300 496.3 343 481.7 385.8 472.7C428.7 463.7 471.3 460.3 514.2 467C557 473.7 600 490.3 642.8 497.7C685.7 505 728.3 503 771.2 497.5C814 492 857 483 878.5 478.5L900 474L900 601L878.5 601C857 601 814 601 771.2 601C728.3 601 685.7 601 642.8 601C600 601 557 601 514.2 601C471.3 601 428.7 601 385.8 601C343 601 300 601 257.2 601C214.3 601 171.7 601 128.8 601C86 601 43 601 21.5 601L0 601Z" fill="#d6d6d6"></path><path d="M0 537L21.5 540C43 543 86 549 128.8 552.5C171.7 556 214.3 557 257.2 557.2C300 557.3 343 556.7 385.8 553.2C428.7 549.7 471.3 543.3 514.2 539.5C557 535.7 600 534.3 642.8 533.8C685.7 533.3 728.3 533.7 771.2 535.3C814 537 857 540 878.5 541.5L900 543L900 601L878.5 601C857 601 814 601 771.2 601C728.3 601 685.7 601 642.8 601C600 601 557 601 514.2 601C471.3 601 428.7 601 385.8 601C343 601 300 601 257.2 601C214.3 601 171.7 601 128.8 601C86 601 43 601 21.5 601L0 601Z" fill="#cccccc"></path></svg>